<?xml version="1.0" standalone="no"?>
<!DOCTYPE svg PUBLIC "-//W3C//DTD SVG 20010904//EN"
 "http://www.w3.org/TR/2001/REC-SVG-20010904/DTD/svg10.dtd">
<svg version="1.0" xmlns="http://www.w3.org/2000/svg"
 width="500.000000pt" height="500.000000pt" viewBox="0 0 500.000000 500.000000"
 preserveAspectRatio="xMidYMid meet">

<g transform="translate(0.000000,500.000000) scale(0.100000,-0.100000)"
fill="#000000" stroke="none">
<path d="M0 2500 l0 -2500 2500 0 2500 0 0 2500 0 2500 -2500 0 -2500 0 0
-2500z m4510 -666 c36 -9 93 -28 127 -41 l61 -25 -28 -66 c-15 -37 -35 -83
-43 -103 l-15 -37 -84 30 c-106 38 -246 50 -296 24 -38 -20 -62 -62 -62 -110
0 -58 43 -95 208 -180 162 -83 224 -128 270 -196 41 -60 56 -124 50 -218 -8
-131 -74 -223 -202 -283 -145 -67 -397 -62 -563 11 l-43 19 0 120 c0 67 2 121
4 121 2 0 44 -16 93 -35 222 -85 408 -81 443 11 36 95 -6 144 -213 250 -232
119 -298 197 -305 361 -9 198 100 325 313 363 65 12 203 4 285 -16z m-1670
-463 c79 -259 147 -467 150 -465 3 3 73 213 157 467 l152 462 180 3 181 2 0
-620 0 -620 -126 0 -127 0 5 478 5 477 -157 -475 -156 -475 -124 0 -124 0
-142 461 c-78 254 -143 467 -146 474 -2 6 -2 -202 0 -464 l4 -476 -121 0 -121
0 0 620 0 620 183 0 182 0 145 -469z"/>
</g>
</svg>
